<svg aria-hidden="true" xmlns="http://www.w3.org/2000/svg" width="140" height="29" viewBox="0 0 140 29" fill="none">
    <rect width="140" height="29" fill="#E5E5E5"></rect>
    <g clip-path="url(#clip0)">
        <rect width="1400" height="13198.7" transform="translate(-145 -34)" fill="white">
        </rect>
        <rect width="1400" height="100" transform="translate(-145 -34)" fill="white"></rect>
        <path d="M22.307 12.6097C22.2774 15.3888 21.4496 17.6062 19.7939 19.4984C19.4982 19.8532 19.1434 20.1784 18.7887 20.4741C18.4634 20.7698 17.9904 20.7698 17.7243 20.4741C17.4582 20.1489 17.5173 19.7054 17.8721 19.4097C18.6113 18.7889 19.2026 18.0793 19.6756 17.2515C20.3852 16.0393 20.7991 14.7384 20.8582 13.3192C20.9765 10.8653 20.2078 8.76616 18.5817 6.96267C18.3452 6.72615 18.0791 6.48962 17.8426 6.2531C17.5173 5.95744 17.4582 5.48439 17.7243 5.18874C17.9904 4.86352 18.4339 4.86352 18.7887 5.18874C20.6808 6.81484 21.8043 8.88443 22.2183 11.3384C22.2774 11.841 22.2774 12.3436 22.307 12.6097Z" fill="#3B43FF"></path>
        <path d="M2.17285 12.8462C2.23198 9.77139 3.38504 7.19919 5.72071 5.15917C6.04593 4.86352 6.51898 4.89308 6.7555 5.18874C7.02159 5.48439 6.96246 5.95744 6.63724 6.22353C5.0407 7.61311 4.03548 9.32791 3.71026 11.4271C3.26677 14.1766 4.00591 16.601 5.86854 18.6706C6.10506 18.9367 6.40072 19.2028 6.66681 19.4393C6.99203 19.735 7.02159 20.1784 6.7555 20.4741C6.48941 20.7698 6.04593 20.7698 5.72071 20.5037C3.65113 18.7297 2.46851 16.4532 2.23198 13.7332C2.23198 13.5853 2.20242 13.4375 2.20242 13.2897C2.17285 13.1419 2.17285 12.994 2.17285 12.8462Z" fill="#3B43FF"></path>
        <path d="M5.0407 12.8166C5.09984 10.6288 5.8981 8.79573 7.58334 7.34702C7.93812 7.05137 8.32247 7.08093 8.61813 7.40615C8.88422 7.70181 8.85465 8.08616 8.49987 8.41138C7.7016 9.15052 7.05116 10.0079 6.72594 11.0723C6.10506 13.2306 6.54854 15.1523 8.08595 16.808C8.23378 16.9854 8.41117 17.1332 8.559 17.3106C8.82509 17.5767 8.85465 17.9906 8.61813 18.2567C8.3816 18.5523 7.90856 18.6115 7.64247 18.3454C7.19899 17.9315 6.78507 17.5175 6.40072 17.0445C5.60245 15.9801 5.15897 14.768 5.07027 13.4079C5.07027 13.3192 5.0407 13.2306 5.0407 13.1123C5.0407 13.0236 5.0407 12.9349 5.0407 12.8166Z" fill="#3B43FF"></path>
        <path d="M19.4391 12.8462C19.38 14.9749 18.5817 16.7784 16.9852 18.2271C16.7486 18.4636 16.453 18.5819 16.1278 18.4636C15.6547 18.2567 15.5365 17.7245 15.8912 17.3106C16.3052 16.8375 16.7782 16.3941 17.133 15.8619C18.5521 13.674 18.2269 10.6879 16.3643 8.82529C16.2165 8.67747 16.0686 8.52964 15.9208 8.38181C15.6547 8.11572 15.6252 7.70181 15.8617 7.43572C16.1278 7.14006 16.5417 7.08093 16.8669 7.31745C17.4582 7.7905 17.9608 8.35225 18.3452 9.00269C18.9661 10.0079 19.3504 11.1018 19.4095 12.2845C19.4095 12.4618 19.4095 12.6392 19.4391 12.8462Z" fill="#3B43FF"></path>
        <path d="M16.5121 12.6688C16.5121 14.1471 16.0095 15.1819 15.0634 16.0688C14.7382 16.3941 14.2651 16.3941 13.999 16.0688C13.733 15.7732 13.733 15.3297 14.0877 15.034C14.6791 14.4723 15.0634 13.7923 15.093 12.9645C15.1225 12.1662 14.886 11.4862 14.3538 10.8949C14.2651 10.7766 14.1469 10.6879 14.0582 10.5992C13.7625 10.3036 13.733 9.88965 13.999 9.594C14.2651 9.29834 14.7086 9.26878 15.0338 9.56443C15.5365 10.0079 15.9208 10.5401 16.1869 11.161C16.4234 11.6931 16.5417 12.2549 16.5121 12.6688Z" fill="#3B43FF"></path>
        <path d="M9.83031 9.35747C10.2442 9.35747 10.4512 9.5053 10.599 9.80096C10.7468 10.0966 10.6581 10.3923 10.4216 10.5992C10.0373 10.9836 9.71205 11.3679 9.53466 11.9001C9.17987 13.0236 9.4164 13.9993 10.1851 14.8567C10.2442 14.9454 10.3329 15.0045 10.4216 15.0932C10.7173 15.4184 10.7468 15.8323 10.4512 16.128C10.1851 16.3941 9.74162 16.4236 9.44596 16.1575C8.70683 15.5071 8.20421 14.7384 8.05638 13.7627C7.76073 12.1662 8.20421 10.7766 9.38683 9.68269C9.53466 9.47574 9.74162 9.4166 9.83031 9.35747Z" fill="#3B43FF"></path>
        <path d="M12.1956 14.2358C11.3973 14.2358 10.7764 13.6149 10.7764 12.8166C10.7764 12.0184 11.4269 11.3975 12.2251 11.3975C13.0234 11.3975 13.6443 12.0184 13.6443 12.8166C13.6443 13.6445 13.0234 14.2358 12.1956 14.2358Z" fill="#3B43FF"></path>
        <path d="M27.2305 20.0304H30.4448V14.9002C30.7428 14.9428 31.126 14.964 31.5518 14.964C33.4676 14.964 35.1067 14.4957 36.2136 13.4527C37.0651 12.6437 37.5335 11.4517 37.5335 10.0467C37.5335 8.64176 36.9161 7.44968 36.0008 6.72591C35.0429 5.95958 33.6166 5.57641 31.6156 5.57641C29.6359 5.57641 28.231 5.70413 27.2305 5.87443V20.0304ZM30.4448 8.15215C30.679 8.08829 31.126 8.02443 31.7859 8.02443C33.4037 8.02443 34.3191 8.81205 34.3191 10.1319C34.3191 11.6007 33.2547 12.4734 31.5305 12.4734C31.0622 12.4734 30.7216 12.4522 30.4448 12.3883V8.15215Z" fill="#191A35"></path>
        <path d="M48.6728 9.62097H45.4159V15.8155C45.4159 16.071 45.3946 16.3264 45.3094 16.518C45.0965 17.0289 44.5857 17.6462 43.6916 17.6462C42.5634 17.6462 42.0738 16.7309 42.0738 15.2195V9.62097H38.8168V15.7304C38.8168 18.9447 40.3708 20.2645 42.4782 20.2645C44.3515 20.2645 45.3307 19.2002 45.7352 18.5616H45.799L45.948 20.0304H48.7579C48.7154 19.1576 48.6728 18.0507 48.6728 16.6883V9.62097Z" fill="#191A35"></path>
        <path d="M50.2482 19.5195C51.0358 19.9452 52.2492 20.2433 53.6116 20.2433C56.5918 20.2433 58.1245 18.817 58.1245 16.8799C58.1032 15.3472 57.273 14.3467 55.2933 13.6655C54.016 13.2185 53.6116 12.963 53.6116 12.4734C53.6116 11.9413 54.0586 11.622 54.8462 11.622C55.7403 11.622 56.6344 11.9626 57.1027 12.218L57.6774 9.98285C57.0388 9.66354 55.9532 9.38681 54.7398 9.38681C52.164 9.38681 50.5036 10.8556 50.5036 12.7928C50.4824 14.0274 51.3126 15.1982 53.4626 15.922C54.6759 16.3264 54.9952 16.5819 54.9952 17.114C54.9952 17.6462 54.5908 17.9868 53.6116 17.9868C52.6537 17.9868 51.419 17.5611 50.823 17.1992L50.2482 19.5195Z" fill="#191A35"></path>
        <path d="M59.6485 20.0304H62.8841V13.8571C62.8841 13.623 62.9054 13.3462 62.9906 13.1333C63.2247 12.5586 63.7569 12.0051 64.6084 12.0051C65.8218 12.0051 66.2901 12.9418 66.2901 14.3041V20.0304H69.5257V13.9423C69.5257 10.813 67.9505 9.38681 65.8856 9.38681C65.2896 9.38681 64.6722 9.53582 64.2039 9.79126C63.693 10.068 63.2673 10.4086 62.9267 10.8556H62.8841V4.9165H59.6485V20.0304Z" fill="#191A35"></path>
        <path d="M80.3383 11.3239H75.059V8.34374H80.6576V5.68284H71.8021V20.0304H80.9556V17.3695H75.059V13.9635H80.3383V11.3239Z" fill="#191A35"></path>
        <path d="M82.6411 20.0304H85.8767V14.0274C85.8767 13.7294 85.9193 13.4101 86.0045 13.2185C86.2173 12.6225 86.7495 12.0051 87.6436 12.0051C88.8144 12.0051 89.2827 12.9205 89.2827 14.2616V20.0304H92.5183V13.8571C92.5183 10.7918 90.9218 9.38681 88.7931 9.38681C87.0688 9.38681 86.0045 10.3873 85.5787 11.0472H85.5149L85.3659 9.62097H82.556C82.5985 10.5363 82.6411 11.6432 82.6411 12.9418V20.0304Z" fill="#191A35"></path>
        <path d="M101.819 9.62097L101.713 10.8556H101.67C101.138 10.0041 100.244 9.38681 98.818 9.38681C96.2635 9.38681 94.0923 11.5155 94.0923 14.8576C94.0923 17.8591 95.923 19.9452 98.4987 19.9452C99.6908 19.9452 100.691 19.4556 101.309 18.5829H101.351V19.264C101.351 21.1799 100.18 22.0101 98.6477 22.0101C97.4343 22.0101 96.2848 21.6056 95.6249 21.2225L94.9863 23.6705C95.923 24.2027 97.3705 24.4794 98.7329 24.4794C100.266 24.4794 101.819 24.1814 102.969 23.2022C104.14 22.1591 104.544 20.52 104.544 18.519V12.7076C104.544 11.1536 104.587 10.2809 104.629 9.62097H101.819ZM101.309 15.3898C101.309 15.6665 101.287 16.0071 101.202 16.2413C100.989 17.0076 100.329 17.5611 99.4992 17.5611C98.1368 17.5611 97.3705 16.3477 97.3705 14.7937C97.3705 12.8992 98.3284 11.8348 99.4992 11.8348C100.393 11.8348 101.011 12.4096 101.245 13.2611C101.287 13.4314 101.309 13.6442 101.309 13.8571V15.3898Z" fill="#191A35"></path>
        <path d="M115.549 20.0304C115.442 19.4556 115.4 18.4977 115.4 17.4972V13.8784C115.4 11.4304 114.293 9.38681 110.823 9.38681C108.929 9.38681 107.502 9.8977 106.779 10.3022L107.375 12.3883C108.056 11.9626 109.184 11.6007 110.248 11.6007C111.845 11.6007 112.143 12.3883 112.143 12.9418V13.0908C108.46 13.0695 106.034 14.368 106.034 17.0715C106.034 18.7319 107.289 20.2645 109.397 20.2645C110.632 20.2645 111.696 19.8175 112.377 18.9873H112.441L112.633 20.0304H115.549ZM112.249 16.2413C112.249 16.4329 112.228 16.6244 112.186 16.7947C111.973 17.4546 111.313 17.9868 110.504 17.9868C109.78 17.9868 109.227 17.5824 109.227 16.7522C109.227 15.4962 110.546 15.0918 112.249 15.1131V16.2413Z" fill="#191A35"></path>
        <path d="M124.667 9.62097L124.56 10.8556H124.518C123.985 10.0041 123.091 9.38681 121.665 9.38681C119.111 9.38681 116.939 11.5155 116.939 14.8576C116.939 17.8591 118.77 19.9452 121.346 19.9452C122.538 19.9452 123.538 19.4556 124.156 18.5829H124.198V19.264C124.198 21.1799 123.027 22.0101 121.495 22.0101C120.281 22.0101 119.132 21.6056 118.472 21.2225L117.833 23.6705C118.77 24.2027 120.218 24.4794 121.58 24.4794C123.113 24.4794 124.667 24.1814 125.816 23.2022C126.987 22.1591 127.391 20.52 127.391 18.519V12.7076C127.391 11.1536 127.434 10.2809 127.477 9.62097H124.667ZM124.156 15.3898C124.156 15.6665 124.134 16.0071 124.049 16.2413C123.836 17.0076 123.176 17.5611 122.346 17.5611C120.984 17.5611 120.218 16.3477 120.218 14.7937C120.218 12.8992 121.176 11.8348 122.346 11.8348C123.24 11.8348 123.858 12.4096 124.092 13.2611C124.134 13.4314 124.156 13.6442 124.156 13.8571V15.3898Z" fill="#191A35"></path>
        <path d="M138.758 15.8581C138.8 15.6239 138.864 15.1343 138.864 14.5809C138.864 12.0051 137.587 9.38681 134.224 9.38681C130.605 9.38681 128.966 12.3031 128.966 14.9428C128.966 18.1997 130.988 20.2433 134.522 20.2433C135.927 20.2433 137.225 20.0304 138.29 19.6046L137.864 17.4121C136.991 17.6888 136.097 17.8378 134.99 17.8378C133.479 17.8378 132.159 17.1992 132.052 15.8581H138.758ZM132.031 13.6442C132.116 12.7715 132.67 11.5368 134.032 11.5368C135.522 11.5368 135.863 12.8566 135.863 13.6442H132.031Z" fill="#191A35"></path>
    </g>
    <defs>
        <clipPath id="clip0">
            <rect width="1400" height="13198.7" fill="white" transform="translate(-145 -34)"></rect>
        </clipPath>
    </defs>
</svg>